<svg width="10" height="10" viewBox="0 0 10 10" fill="none" xmlns="http://www.w3.org/2000/svg">
<g clip-path="url(#clip0_330_3623)">
<path fill-rule="evenodd" clip-rule="evenodd" d="M5.0618 4.96202C5.0618 4.96202 5.37979 2.66854 6.30496 1.2763C6.4006 1.07197 6.53276 0.878167 6.70113 0.705235C7.44775 -0.0616067 8.62369 -0.127613 9.32768 0.557805C10.0317 1.24322 9.99711 2.42051 9.25049 3.18735C9.14876 3.29183 9.03907 3.38331 8.92368 3.46164C7.59648 4.54128 5.0618 4.96202 5.0618 4.96202ZM4.85961 5.14363C4.85961 5.14363 2.57555 5.52276 1.20852 6.48478C1.0068 6.58584 0.816584 6.72314 0.648201 6.89608C-0.0984159 7.66292 -0.132976 8.84022 0.571009 9.52563C1.27499 10.2111 2.45093 10.145 3.19756 9.3782C3.29931 9.2737 3.38783 9.16156 3.46307 9.0441C4.50679 7.6885 4.85961 5.14363 4.85961 5.14363ZM1.19239 3.70948C2.58463 4.6346 4.878 4.95256 4.878 4.95256C4.878 4.95256 4.45728 2.41794 3.37767 1.09073C3.29933 0.975343 3.20785 0.865645 3.10337 0.763916C2.33653 0.0172999 1.15924 -0.0172604 0.473821 0.686725C-0.211597 1.39071 -0.145591 2.56666 0.621249 3.31327C0.794203 3.48166 0.988032 3.61383 1.19239 3.70948ZM5.03747 5.14575C5.03747 5.14575 7.33084 5.46371 8.72308 6.38883C8.92744 6.48448 9.12127 6.61666 9.29423 6.78504C10.0611 7.53166 10.1271 8.7076 9.44165 9.41159C8.75623 10.1156 7.57895 10.081 6.81211 9.3344C6.70761 9.23267 6.61615 9.12298 6.53781 9.00758C5.4582 7.68038 5.03747 5.14575 5.03747 5.14575Z" fill="#0274F6"/>
<path d="M4.95104 7.86235C5.01244 7.86235 5.06223 6.60358 5.06223 5.0508C5.06223 3.49803 5.01244 2.23926 4.95104 2.23926C4.88963 2.23926 4.83984 3.49803 4.83984 5.0508C4.83984 6.60358 4.88963 7.86235 4.95104 7.86235Z" fill="white"/>
<path d="M7.74712 5.05092C7.74712 4.98951 6.48834 4.93973 4.93557 4.93973C3.3828 4.93973 2.12402 4.98951 2.12402 5.05092C2.12402 5.11233 3.3828 5.16211 4.93557 5.16211C6.48834 5.16211 7.74712 5.11233 7.74712 5.05092Z" fill="white"/>
</g>
<defs>
<clipPath id="clip0_330_3623">
<rect width="10" height="10" fill="white"/>
</clipPath>
</defs>
</svg>
